<svg xmlns="http://www.w3.org/2000/svg" width="220" height="48" viewBox="0 0 220 48"><path fill="#55C6D0" stroke="#2B2728" stroke-width=".705" stroke-miterlimit="10" d="M46.708 19.564s10.76 3.223 17.268-7.577c0 0-1.938 18.678-17.268 7.577z"/><path fill="#fff" stroke="#2B2728" stroke-width=".705" stroke-miterlimit="10" d="M44.065 19.212S43.42.182 17.46 10.226c0 0 19.733-2.82 26.605 8.986z"/><path fill="#55C6D0" stroke="#2B2728" stroke-width=".705" stroke-miterlimit="10" d="M46.003 26.436S20.278 15.16 3.715 45.643c0 0 22.42-20.042 42.288-19.207z"/><path fill="#fff" stroke="#2B2728" stroke-width=".705" stroke-miterlimit="10" d="M33.043 32.23S51.973 19.15 62.88 40.53c0 0-9.82-10.6-29.837-8.297z"/><ellipse transform="matrix(.977 .211 -.211 .977 2.826 -10.282)" fill="#55C6D0" stroke="#2B2728" stroke-width=".705" stroke-miterlimit="10" cx="49.49" cy="8.072" rx="5.021" ry="6.37"/><path fill="#55C6D0" d="M214.633 47.806c-4.934 0-35.24 0-35.24 0l-5.97-4.23H82.2c-4.708 0-8.528-3.785-8.528-8.456V9.042c0-4.672 3.82-8.458 8.528-8.458h127.957c4.708 0 8.704 3.785 8.704 8.458V35.12c0 .267-.014.534-.042.803.008.754.043 6.02.043 6.182 0 .175.705 5.7-4.227 5.7z"/><path fill="#fff" d="M208.46 40.003V26.457c0-2.044-.677-2.044-1-2.044-.615 0-1.29.603-1.82 1.62v13.97h-4.228v-13.51c0-.625-.135-2.08-1.388-2.08-.42 0-.906.49-1.967 1.603l-.17.176v13.812h-4.228V20.27h4.228v1.302c.92-.972 1.986-1.48 3.137-1.48 1.558 0 2.85.742 3.85 2.21.45-.58.858-1.025 1.24-1.35.646-.56 1.486-.844 2.493-.844 1.42 0 2.597.564 3.494 1.68.857 1.062 1.29 2.564 1.29 4.465v13.75h-4.932zM181.18 45.643l2.526-9.31-5.12-16.063h4.857l2.5 8.03 2.21-8.03h4.72l-6.98 25.373zM90.145 37.565c0 .373-.154.605-.464.852-.26.212-.796.178-1.613.178H82.42c-1.48 0-2.234-.29-2.234-1.128 0-.297.07-.38.226-.55.155-.177.472-.41.994-.698 1.565-.867 2.305-2.44 2.305-4.716V14.11l2.82 4.298v13.095c0 1.135.12 2.072.5 2.805.38.733.916 1.34 1.748 1.812l.733.415c.424.24.635.536.635 1.03zM106.968 28.106v10.488h-6.61l-16.59-28.446c-.36-.62-.65-.902-.882-1.148-.226-.24-.522-.423-.88-.536l-.924-.345c-.247-.08-.444-.234-.585-.445-.148-.21-.226-.45-.226-.705 0-.282.08-.543.227-.783.14-.232.338-.416.585-.514.275-.12 1.02-.205 2.248-.205h10.7l12.938 22.638zM110.79 6.835c0 .346-.08.614-.234.783-.155.176-.528.41-1.114.698-.86.444-1.543 1.113-1.98 2.03-.31.67-.493 1.572-.493 2.713v11.135l-2.82-4.37V13.06c0-1.368-.057-2.418-.458-3.145-.395-.726-1.03-1.346-2.037-1.868-.345-.162-.542-.338-.677-.52-.127-.19-.176-.43-.176-.727 0-.437.155-.79.437-.994.288-.204.753-.338 1.387-.338h6.11c.832 0 1.375.162 1.636.423.274.255.416.587.416.945zM130.163 37.487c0 .422-.21.698-.634.96-.312.19-.826.147-1.544.147h-12.362c-.586 0-1.044.027-1.36-.19-.317-.22-.48-.39-.48-.798 0-.662.312-1.106.967-1.317.536-.177.84-.29.923-.332.093-.035.142-.134.24-.282.197-.253.22-.67.22-1.24V9.978c0-.572-.022-.988-.22-1.25-.1-.147-.112-.246-.204-.288-.085-.042-.402-.148-.938-.332-.656-.21-.98-.656-.98-1.325 0-.41.162-.733.48-.952.316-.22.767-.367 1.353-.367h11.783v28.77c0 .636-.02 1.093.227 1.367.127.162.12.268.232.303.112.043.486.148 1.12.31.782.18 1.176.56 1.176 1.27zM146.113 34.24c0 .506-.246 1.118-.727 1.845-.48.72-1.085 1.367-1.804 1.938-.67.543-1.396.924-2.178 1.164-.782.23-1.733.352-2.79.352-2.144 0-3.87-.613-5.075-1.847-1.206-1.227-1.904-2.94-1.904-5.14v-4.108c0-.908.02-1.437.006-1.585-.083-.65-.288-1.212-.66-1.686-.474-.57-.755-.9-2.165-1V21.56c1.41-.134 1.593-.36 1.967-.684.324-.296.64-.627.76-1 .128-.375.093-.93.093-1.665v-6.476c0-1.022-.226-1.79-.627-2.29-.402-.51-.782-.91-2.192-1.2V5.47h.88c1.805 0 3.35.1 4.617.233 1.89.177 3.573.826 5.054 1.883 2.135 1.515 3.205 3.672 3.205 6.477 0 2.298-.718 4.18-2.156 5.646-.6.613-1.312 1.12-2.115 1.508-.81.395-2.044.832-3.686 1.318 1.5.233 2.642.486 3.452.76.803.276 1.5.65 2.157 1.122.683.507 1.154 1.114 1.528 1.812.366.697.45 1.438.45 2.22v5.06c0 .522.27.784.613.784.136 0 .332-.036.424-.113.092-.07.21-.212.38-.423.403-.557.818-.832 1.24-.832.283 0 .558.148.833.438.275.294.416.582.416.88zM159.123 11v22.752c0 .874.325 1.55.564 2.022.22.396.846.726 1.55 1v2.764c-.704 0-1.084-.043-1.515-.12-.43-.084-1.092-.246-1.812-.492-1.705-.585-3.263-1.48-4.645-2.686-1.39-1.205-2.522-2.644-3.425-4.32-1.38-2.62-2.08-5.73-2.08-9.31 0-3.468.6-6.548 1.834-9.234 1.24-2.692 2.98-4.8 5.3-6.33 1.33-.894 2.7-1.536 4.228-1.93.635-.163 1.41-.247 2.115-.247V7.58c-1.41.346-2.114 1.48-2.114 3.42zM175.334 6.512v9.5c0 1.24-.62 1.854-1.528 1.854-.46 0-.96-.12-1.18-.367-.218-.24-.43-.72-.618-1.44-.247-.908-.705-1.972-1.34-3.185-.634-1.212-1.254-2.17-1.853-2.875-.655-.81-1.452-1.41-2.284-1.79-.824-.388-1.768-.613-3.178-.677V4.897c2.818.247 4.92.733 6.632 1.466.508.225.974.338 1.255.338.252 0 .472-.056.605-.182.14-.12.444-.465.866-1.036.298-.41.698-.613 1.136-.613.46 0 .86.126 1.05.38.184.253.438.67.438 1.262zM176.145 23.265c0 .31-.056.642-.184.846-.12.205-.33.423-.654.648-.323.226-.514.438-.592.635-.078.196-.085.557-.085 1.077v8.33c-.706.65-1.536 1.313-2.615 1.99-1.086.676-2.115 1.21-3.08 1.6-.882.345-1.798.62-2.86.83-1.072.212-2.017.317-2.722.317v-2.763c0-.112.783-.246 1.02-.416.234-.16.39-.388.552-.684.274-.5.543-1.14.543-1.924v-7.14c0-.634-.255-1.092-.494-1.374-.113-.162-.353-.275-.465-.318-.113-.042-.487-.146-1.122-.296-.782-.197-1.177-.683-1.177-1.402 0-.43.184-.825.558-1.057.36-.226.902-.486 1.62-.486h9.75c.73 0 1.246.247 1.55.45.3.207.457.638.457 1.138z"/></svg>